<svg xmlns="http://www.w3.org/2000/svg" viewBox="0 0 120 120">
  <rect width="120" height="120" fill="#1c1a17" />
  <path fill="#f2eee6" d="M49.29 101.81Q44.19 101.81 40.97 100.14Q37.74 98.48 37.22 95.05Q37.74 91.72 39.72 90.11Q41.70 88.50 44.61 88.50Q47.52 88.50 49.34 89.48Q51.16 90.47 53.55 93.18L56.98 96.71L55.42 96.71L57.40 96.71L56.67 96.92Q56.88 94.22 56.83 91.51Q56.78 88.81 56.67 85.74Q56.57 82.67 56.52 78.98Q56.46 75.29 56.46 70.40Q56.46 67.28 56.46 64.11Q56.46 60.94 56.46 57.40Q56.46 53.86 56.46 49.86Q56.46 45.86 56.41 41.12Q56.36 36.39 56.31 30.72Q56.26 25.06 56.26 18.19L74.46 18.19Q74.35 25.89 74.35 33.53Q74.35 41.18 74.35 49.08L74.35 66.45Q74.35 72.38 73.88 76.64Q73.42 80.90 72.48 83.92Q71.54 86.94 70.19 89.22Q68.84 91.51 67.18 93.49Q63.64 97.86 59.22 99.83Q54.80 101.81 49.29 101.81M61.25 25.68L46.58 24.85L46.58 18.19L82.78 18.19L82.78 24.85L68.42 25.68" />
</svg>
